HIERARCHY
ROOT hip
{
OFFSET -0.11 88.76 -1.25
CHANNELS 6 Xposition Yposition Zposition Zrotation Xrotation Yrotation
JOINT abdomen
{
OFFSET 0 7.23 0
CHANNELS 6 Xposition Yposition Zposition Zrotation Xrotation Yrotation
JOINT chest
{
OFFSET 0 16.54 0
CHANNELS 6 Xposition Yposition Zposition Zrotation Xrotation Yrotation
JOINT neck
{
OFFSET 0 34.21 0
CHANNELS 6 Xposition Yposition Zposition Zrotation Xrotation Yrotation
JOINT head
{
OFFSET 0 6.29 0
CHANNELS 6 Xposition Yposition Zposition Zrotation Xrotation Yrotation
End Site
{
OFFSET 0 21.21 0
}
}
}
JOINT lCollar
{
OFFSET 4.06 26.61 -1.12
CHANNELS 6 Xposition Yposition Zposition Zrotation Xrotation Yrotation
JOINT lShldr
{
OFFSET 14.17 0 0
CHANNELS 6 Xposition Yposition Zposition Zrotation Xrotation Yrotation
JOINT lForeArm
{
OFFSET 26.12 0 0
CHANNELS 6 Xposition Yposition Zposition Zrotation Xrotation Yrotation
JOINT lHand
{
OFFSET 27.71 0 0
CHANNELS 6 Xposition Yposition Zposition Zrotation Xrotation Yrotation
JOINT lThumb1
{
OFFSET 2.29 -0.46 1.83
CHANNELS 6 Xposition Yposition Zposition Zrotation Xrotation Yrotation
JOINT lThumb2
{
OFFSET 5.29 0 0
CHANNELS 6 Xposition Yposition Zposition Zrotation Xrotation Yrotation
JOINT lThumb3
{
OFFSET 3.01 0 0
CHANNELS 6 Xposition Yposition Zposition Zrotation Xrotation Yrotation
End Site
{
OFFSET 2.62 0 0
}
}
}
}
JOINT lIndex1
{
OFFSET 9.37 0.29 2.59
CHANNELS 6 Xposition Yposition Zposition Zrotation Xrotation Yrotation
JOINT lIndex2
{
OFFSET 4.34 0 0
CHANNELS 6 Xposition Yposition Zposition Zrotation Xrotation Yrotation
JOINT lIndex3
{
OFFSET 2.16 0 0
CHANNELS 6 Xposition Yposition Zposition Zrotation Xrotation Yrotation
End Site
{
OFFSET 2.20 0 0
}
}
}
}
JOINT lMid1
{
OFFSET 9.47 0.83 0.29
CHANNELS 6 Xposition Yposition Zposition Zrotation Xrotation Yrotation
JOINT lMid2
{
OFFSET 4.77 0 0
CHANNELS 6 Xposition Yposition Zposition Zrotation Xrotation Yrotation
JOINT lMid3
{
OFFSET 2.87 0 0
CHANNELS 6 Xposition Yposition Zposition Zrotation Xrotation Yrotation
End Site
{
OFFSET 2.09 0 0
}
}
}
}
JOINT lRing1
{
OFFSET 8.65 1.01 -1.70
CHANNELS 6 Xposition Yposition Zposition Zrotation Xrotation Yrotation
JOINT lRing2
{
OFFSET 4.54 0 0
CHANNELS 6 Xposition Yposition Zposition Zrotation Xrotation Yrotation
JOINT lRing3
{
OFFSET 2.50 0 0
CHANNELS 6 Xposition Yposition Zposition Zrotation Xrotation Yrotation
End Site
{
OFFSET 2.20 0 0
}
}
}
}
JOINT lPinky1
{
OFFSET 7.69 0.66 -3.90
CHANNELS 6 Xposition Yposition Zposition Zrotation Xrotation Yrotation
JOINT lPinky2
{
OFFSET 3.21 0 0
CHANNELS 6 Xposition Yposition Zposition Zrotation Xrotation Yrotation
JOINT lPinky3
{
OFFSET 1.92 0 0
CHANNELS 6 Xposition Yposition Zposition Zrotation Xrotation Yrotation
End Site
{
OFFSET 1.78 0 0
}
}
}
}
}
}
}
}
JOINT rCollar
{
OFFSET -4.06 26.61 -1.12
CHANNELS 6 Xposition Yposition Zposition Zrotation Xrotation Yrotation
JOINT rShldr
{
OFFSET -14.17 0 0
CHANNELS 6 Xposition Yposition Zposition Zrotation Xrotation Yrotation
JOINT rForeArm
{
OFFSET -26.12 0 0
CHANNELS 6 Xposition Yposition Zposition Zrotation Xrotation Yrotation
JOINT rHand
{
OFFSET -27.71 0 0
CHANNELS 6 Xposition Yposition Zposition Zrotation Xrotation Yrotation
JOINT rThumb1
{
OFFSET -2.29 -0.46 1.83
CHANNELS 6 Xposition Yposition Zposition Zrotation Xrotation Yrotation
JOINT rThumb2
{
OFFSET -5.29 0 0
CHANNELS 6 Xposition Yposition Zposition Zrotation Xrotation Yrotation
JOINT rThumb3
{
OFFSET -3.01 0 0
CHANNELS 6 Xposition Yposition Zposition Zrotation Xrotation Yrotation
End Site
{
OFFSET -2.62 0 0
}
}
}
}
JOINT rIndex1
{
OFFSET -9.37 0.29 2.59
CHANNELS 6 Xposition Yposition Zposition Zrotation Xrotation Yrotation
JOINT rIndex2
{
OFFSET -4.34 0 0
CHANNELS 6 Xposition Yposition Zposition Zrotation Xrotation Yrotation
JOINT rIndex3
{
OFFSET -2.16 0 0
CHANNELS 6 Xposition Yposition Zposition Zrotation Xrotation Yrotation
End Site
{
OFFSET -2.20 0 0
}
}
}
}
JOINT rMid1
{
OFFSET -9.47 0.83 0.29
CHANNELS 6 Xposition Yposition Zposition Zrotation Xrotation Yrotation
JOINT rMid2
{
OFFSET -4.77 0 0
CHANNELS 6 Xposition Yposition Zposition Zrotation Xrotation Yrotation
JOINT rMid3
{
OFFSET -2.87 0 0
CHANNELS 6 Xposition Yposition Zposition Zrotation Xrotation Yrotation
End Site
{
OFFSET -2.09 0 0
}
}
}
}
JOINT rRing1
{
OFFSET -8.65 1.01 -1.70
CHANNELS 6 Xposition Yposition Zposition Zrotation Xrotation Yrotation
JOINT rRing2
{
OFFSET -4.54 0 0
CHANNELS 6 Xposition Yposition Zposition Zrotation Xrotation Yrotation
JOINT rRing3
{
OFFSET -2.50 0 0
CHANNELS 6 Xposition Yposition Zposition Zrotation Xrotation Yrotation
End Site
{
OFFSET -2.20 0 0
}
}
}
}
JOINT rPinky1
{
OFFSET -7.69 0.66 -3.90
CHANNELS 6 Xposition Yposition Zposition Zrotation Xrotation Yrotation
JOINT rPinky2
{
OFFSET -3.21 0 0
CHANNELS 6 Xposition Yposition Zposition Zrotation Xrotation Yrotation
JOINT rPinky3
{
OFFSET -1.92 0 0
CHANNELS 6 Xposition Yposition Zposition Zrotation Xrotation Yrotation
End Site
{
OFFSET -1.78 0 0
}
}
}
}
}
}
}
}
}
}
JOINT lThigh
{
OFFSET 8.73 -0 0
CHANNELS 6 Xposition Yposition Zposition Zrotation Xrotation Yrotation
JOINT lShin
{
OFFSET 0 -46.66 0
CHANNELS 6 Xposition Yposition Zposition Zrotation Xrotation Yrotation
JOINT lFoot
{
OFFSET 0 -40.14 0
CHANNELS 6 Xposition Yposition Zposition Zrotation Xrotation Yrotation
JOINT lToes
{
OFFSET 0 -8.88 14.22
CHANNELS 6 Xposition Yposition Zposition Zrotation Xrotation Yrotation
End Site
{
OFFSET 0 0 6.29
}
}
}
}
}
JOINT rThigh
{
OFFSET -8.73 0 -0
CHANNELS 6 Xposition Yposition Zposition Zrotation Xrotation Yrotation
JOINT rShin
{
OFFSET 0 -46.66 0
CHANNELS 6 Xposition Yposition Zposition Zrotation Xrotation Yrotation
JOINT rFoot
{
OFFSET 0 -40.14 0
CHANNELS 6 Xposition Yposition Zposition Zrotation Xrotation Yrotation
JOINT rToes
{
OFFSET 0 -8.88 14.22
CHANNELS 6 Xposition Yposition Zposition Zrotation Xrotation Yrotation
End Site
{
OFFSET 0 0 6.29
}
}
}
}
}
}
MOTION
Frames: 4
Frame Time: 0.03
1.67 90.33 -8.30 -5.65 12.79 10.44 0 7.23 0 -1.02 2.12 -6.98 0 16.54 0 2.42 6.01 -14.39 0 34.21 0 2.29 20.61 -0.28 0 6.29 0 20.95 -45.05 12.64 4.06 26.61 -1.12 -1.30 -0.08 1.92 14.17 0 0 -30 29.42 -37.59 26.12 0 0 -0.83 1.08 -105.16 27.71 0 0 -5.79 22.04 10.65 2.29 -0.46 1.83 71.79 59.90 -76.09 5.29 0 0 -33.43 2.51 -8.75 3.01 0 0 34.17 6.89 19.92 9.37 0.29 2.59 -66.33 -2.21 2.34 4.34 0 0 -80.41 -9.73 11.82 2.16 0 0 -71.91 -8.07 10.68 9.47 0.83 0.29 -66.31 -12.00 10.09 4.77 0 0 -85.61 -13.81 14.99 2.87 0 0 -69.75 -9.67 15.41 8.65 1.01 -1.70 -76.40 -7.02 10.02 4.54 0 0 -86.77 -7.47 7.90 2.50 0 0 -82.64 -6.85 8.78 7.69 0.66 -3.90 -74.54 -22.43 2.88 3.21 0 0 -78.79 -16.43 19.94 1.92 0 0 -71.25 -13.77 20.74 -4.06 26.61 -1.12 2.59 -2.41 -16.43 -14.17 0 0 67.34 31.86 -47.96 -26.12 0 0 0.65 0.30 49.53 -27.71 0 0 -5.49 -4.16 21.87 -2.29 -0.46 1.83 -65.14 62.52 76.99 -5.29 0 0 25.49 6.90 -0.55 -3.01 0 0 -27.28 -9.53 -9.01 -9.37 0.29 2.59 79.80 -2.52 -5.98 -4.34 0 0 108.38 -13.81 -10.18 -2.16 0 0 92.54 -10.90 -10.05 -9.47 0.83 0.29 85.77 -14.19 -7.75 -4.77 0 0 99.06 -15.77 -13.55 -2.87 0 0 83.17 -11.92 -14.86 -8.65 1.01 -1.70 93.20 -8.59 -8.94 -4.54 0 0 103.58 -8.26 -6.51 -2.50 0 0 75.79 -5.01 -7.27 -7.69 0.66 -3.90 96.20 -32.79 -0.56 -3.21 0 0 94.64 -20.43 -18.87 -1.92 0 0 79.26 -15.38 -20.01 8.73 -0 0 5.92 -0.49 13.38 0 -46.66 0 7.88 31.49 -9.41 0 -40.14 0 -9.15 -12.73 -0.94 0 -8.88 14.22 0 0 -0 -8.73 0 -0 0.12 -55.75 -10.09 0 -46.66 0 -167.60 54.10 156.86 0 -40.14 0 1.01 -24.62 -9.11 0 -8.88 14.22 0 0 0 
1.67 92.23 -6.84 -7.24 13.51 8.93 0 7.23 0 0.08 1.21 -8.00 0 16.54 0 4.19 4.07 -16.00 0 34.21 0 3.01 20 -0.04 0 6.29 0 21.44 -43.52 14.83 4.06 26.61 -1.12 0.88 0 5.61 14.17 0 0 -26.43 25.10 -41.37 26.12 0 0 -0.78 1.21 -114.00 27.71 0 0 -8.25 28.57 17.01 2.29 -0.46 1.83 71.79 59.90 -76.09 5.29 0 0 -34.48 2.14 -8.85 3.01 0 0 33.40 5.96 19.86 9.37 0.29 2.59 -65.20 -1.97 2.19 4.34 0 0 -81.01 -9.86 11.84 2.16 0 0 -72.00 -8.09 10.69 9.47 0.83 0.29 -65.58 -11.86 10.11 4.77 0 0 -84.76 -13.59 14.97 2.87 0 0 -69.62 -9.64 15.40 8.65 1.01 -1.70 -75.27 -6.81 10.09 4.54 0 0 -84.73 -7.19 7.88 2.50 0 0 -82.96 -6.89 8.79 7.69 0.66 -3.90 -73.92 -22.44 2.99 3.21 0 0 -77.51 -15.98 19.84 1.92 0 0 -70.99 -13.68 20.71 -4.06 26.61 -1.12 1.26 -2.34 -16.40 -14.17 0 0 67.39 33.17 -53.31 -26.12 0 0 0.68 0.34 52.81 -27.71 0 0 -6.60 -4.80 20.84 -2.29 -0.46 1.83 -65.14 62.52 76.99 -5.29 0 0 24.49 7.18 -0.67 -3.01 0 0 -27.54 -9.19 -9.24 -9.37 0.29 2.59 79.60 -2.62 -6.03 -4.34 0 0 107.33 -13.62 -10.24 -2.16 0 0 92.74 -10.94 -10.04 -9.47 0.83 0.29 85.39 -14.13 -8.00 -4.77 0 0 98.85 -15.72 -13.56 -2.87 0 0 82.86 -11.84 -14.85 -8.65 1.01 -1.70 92.94 -8.55 -9.01 -4.54 0 0 102.83 -8.18 -6.53 -2.50 0 0 75.47 -4.97 -7.27 -7.69 0.66 -3.90 95.43 -32.63 -0.62 -3.21 0 0 94.79 -20.48 -18.86 -1.92 0 0 79.09 -15.32 -20 8.73 -0 0 8.80 6.00 15.70 0 -46.66 0 5.58 27.49 -7.78 0 -40.14 0 -10.92 1.36 3.19 0 -8.88 14.22 0 0 0 -8.73 0 -0 7.92 -61.62 -3.52 0 -46.66 0 -157.51 66.18 149.98 0 -40.14 0 2.59 -24.55 -8.86 0 -8.88 14.22 0 0 0 
1.89 94.73 -5.49 -7.73 14.63 6.65 0 7.23 0 1.05 0.46 -8.49 0 16.54 0 5.03 2.50 -16.65 0 34.21 0 3.50 19.48 0.21 0 6.29 0 21.53 -42.71 16.77 4.06 26.61 -1.12 1.52 0.29 8.99 14.17 0 0 -24.16 20.83 -42.05 26.12 0 0 -0.75 1.28 -119.10 27.71 0 0 -10.75 31.80 21.40 2.29 -0.46 1.83 71.79 59.90 -76.09 5.29 0 0 -35.04 1.95 -8.90 3.01 0 0 32.65 5.15 19.77 9.37 0.29 2.59 -62.84 -1.54 2.02 4.34 0 0 -80.19 -9.69 11.82 2.16 0 0 -72.33 -8.15 10.71 9.47 0.83 0.29 -63.99 -11.58 10.10 4.77 0 0 -82.47 -12.99 14.90 2.87 0 0 -69.47 -9.60 15.38 8.65 1.01 -1.70 -73.13 -6.41 10.18 4.54 0 0 -81.17 -6.70 7.82 2.50 0 0 -82.96 -6.89 8.79 7.69 0.66 -3.90 -72.56 -22.31 3.08 3.21 0 0 -75.41 -15.26 19.66 1.92 0 0 -70.67 -13.58 20.67 -4.06 26.61 -1.12 0.66 -2.29 -16.24 -14.17 0 0 65.36 34.14 -54.33 -26.12 0 0 0.70 0.36 54.75 -27.71 0 0 -7.13 -5.44 19.89 -2.29 -0.46 1.83 -65.14 62.52 76.99 -5.29 0 0 23.46 7.40 -0.79 -3.01 0 0 -27.81 -8.80 -9.50 -9.37 0.29 2.59 78.86 -2.62 -6.07 -4.34 0 0 106.38 -13.46 -10.29 -2.16 0 0 92.94 -10.98 -10.04 -9.47 0.83 0.29 84.81 -14.04 -8.25 -4.77 0 0 98.75 -15.70 -13.56 -2.87 0 0 82.66 -11.80 -14.85 -8.65 1.01 -1.70 92.66 -8.51 -9.15 -4.54 0 0 102.24 -8.11 -6.54 -2.50 0 0 75.27 -4.95 -7.26 -7.69 0.66 -3.90 96.00 -32.75 -0.75 -3.21 0 0 94.71 -20.45 -18.86 -1.92 0 0 78.93 -15.27 -19.99 8.73 -0 0 8.30 10.96 15.36 0 -46.66 0 5.18 27.44 -3.02 0 -40.14 0 -12.51 2.50 9.09 0 -8.88 14.22 0 0 0 -8.73 0 -0 12.31 -63.52 1.68 0 -46.66 0 -122.27 79.57 115.83 0 -40.14 0 5.34 -23.90 -8.51 0 -8.88 14.22 0 0 0 
2.22 97.56 -3.65 -7.18 15.14 4.18 0 7.23 0 1.62 0.18 -8.35 0 16.54 0 5.28 1.93 -16.30 0 34.21 0 3.60 19.21 0.43 0 6.29 0 21.17 -42.79 17.82 4.06 26.61 -1.12 1.67 0.46 10.35 14.17 0 0 -23.62 19.48 -39.33 26.12 0 0 -0.74 1.30 -120.67 27.71 0 0 -11.02 30.63 21.39 2.29 -0.46 1.83 71.79 59.90 -76.09 5.29 0 0 -34.79 2.05 -8.88 3.01 0 0 31.65 4.08 19.70 9.37 0.29 2.59 -60.16 -1.06 1.82 4.34 0 0 -78.38 -9.31 11.74 2.16 0 0 -72.64 -8.22 10.73 9.47 0.83 0.29 -61.97 -11.22 10.05 4.77 0 0 -79.82 -12.30 14.79 2.87 0 0 -69.08 -9.51 15.35 8.65 1.01 -1.70 -70.49 -5.93 10.24 4.54 0 0 -77.13 -6.16 7.72 2.50 0 0 -82.66 -6.85 8.78 7.69 0.66 -3.90 -70.68 -22.07 3.14 3.21 0 0 -73.05 -14.44 19.42 1.92 0 0 -70.24 -13.43 20.62 -4.06 26.61 -1.12 0.30 -2.25 -16.46 -14.17 0 0 63.00 34.67 -52.93 -26.12 0 0 0.70 0.37 55.50 -27.71 0 0 -7.06 -6.14 19.27 -2.29 -0.46 1.83 -65.14 62.52 76.99 -5.29 0 0 22.35 7.65 -0.92 -3.01 0 0 -28.03 -8.53 -9.66 -9.37 0.29 2.59 78.51 -2.67 -6.10 -4.34 0 0 105.48 -13.30 -10.34 -2.16 0 0 93.10 -11.01 -10.04 -9.47 0.83 0.29 84.44 -13.98 -8.36 -4.77 0 0 98.59 -15.66 -13.57 -2.87 0 0 82.48 -11.75 -14.84 -8.65 1.01 -1.70 92.38 -8.46 -9.25 -4.54 0 0 101.69 -8.05 -6.55 -2.50 0 0 75.07 -4.92 -7.25 -7.69 0.66 -3.90 96.09 -32.79 -0.86 -3.21 0 0 94.74 -20.46 -18.86 -1.92 0 0 78.74 -15.21 -19.98 8.73 -0 0 5.21 18.10 13.02 0 -46.66 0 4.66 24.26 5.54 0 -40.14 0 -12.61 3.49 13.62 0 -8.88 14.22 0 0 0 -8.73 0 -0 9.53 -60.76 0.01 0 -46.66 0 -23.34 74.62 14.70 0 -40.14 0 5.93 -24.01 -9.54 0 -8.88 14.22 0 0 0 
